<mxfile host="app.diagrams.net" modified="2020-11-28T09:11:59.272Z" agent="5.0 (Windows NT 10.0; Win64; x64) AppleWebKit/537.36 (KHTML, like Gecko) Chrome/86.0.4240.198 Safari/537.36" etag="akXeAYJHAcU4d_VrVCb9" version="13.10.4" type="github">
  <diagram id="Ik2oXXnpbhbtiTRbjWgj" name="Page-1">
    <mxGraphModel dx="877" dy="677" grid="1" gridSize="10" guides="1" tooltips="1" connect="1" arrows="1" fold="1" page="1" pageScale="1" pageWidth="827" pageHeight="1169" math="0" shadow="0">
      <root>
        <mxCell id="0" />
        <mxCell id="1" parent="0" />
        <mxCell id="YH33TmlLzwuRI0bwZjfn-5" style="edgeStyle=orthogonalEdgeStyle;rounded=1;orthogonalLoop=1;jettySize=auto;html=1;entryX=0.5;entryY=0;entryDx=0;entryDy=0;" edge="1" parent="1" source="YH33TmlLzwuRI0bwZjfn-1" target="YH33TmlLzwuRI0bwZjfn-4">
          <mxGeometry relative="1" as="geometry">
            <Array as="points">
              <mxPoint x="630" y="225" />
            </Array>
          </mxGeometry>
        </mxCell>
        <mxCell id="YH33TmlLzwuRI0bwZjfn-6" style="edgeStyle=orthogonalEdgeStyle;rounded=1;orthogonalLoop=1;jettySize=auto;html=1;" edge="1" parent="1" source="YH33TmlLzwuRI0bwZjfn-1" target="YH33TmlLzwuRI0bwZjfn-3">
          <mxGeometry relative="1" as="geometry">
            <Array as="points">
              <mxPoint x="200" y="225" />
            </Array>
          </mxGeometry>
        </mxCell>
        <mxCell id="YH33TmlLzwuRI0bwZjfn-1" value="Command&lt;br&gt;&lt;br&gt;void execute()" style="rounded=0;whiteSpace=wrap;html=1;fillColor=#d5e8d4;strokeColor=#82b366;" vertex="1" parent="1">
          <mxGeometry x="300" y="190" width="220" height="70" as="geometry" />
        </mxCell>
        <mxCell id="YH33TmlLzwuRI0bwZjfn-2" value="&lt;font style=&quot;font-size: 18px&quot;&gt;命令模式&lt;/font&gt;" style="text;html=1;strokeColor=none;fillColor=none;align=center;verticalAlign=middle;whiteSpace=wrap;rounded=0;" vertex="1" parent="1">
          <mxGeometry x="100" y="100" width="150" height="60" as="geometry" />
        </mxCell>
        <mxCell id="YH33TmlLzwuRI0bwZjfn-3" value="OnCommand&lt;br&gt;&lt;br&gt;ConditionReceiver receiver;&lt;br&gt;&lt;br&gt;receiver.on(){&lt;br&gt;receiver.on()&lt;br&gt;}" style="rounded=0;whiteSpace=wrap;html=1;fillColor=#dae8fc;strokeColor=#6c8ebf;" vertex="1" parent="1">
          <mxGeometry x="90" y="350" width="220" height="90" as="geometry" />
        </mxCell>
        <mxCell id="YH33TmlLzwuRI0bwZjfn-4" value="OffCommand&lt;br&gt;&lt;br&gt;ConditionReceiver receiver;&lt;br&gt;&lt;br&gt;receiver.off(){&lt;br&gt;reciver.off()&lt;br&gt;}" style="rounded=0;whiteSpace=wrap;html=1;fillColor=#dae8fc;strokeColor=#6c8ebf;" vertex="1" parent="1">
          <mxGeometry x="520" y="350" width="220" height="110" as="geometry" />
        </mxCell>
        <mxCell id="YH33TmlLzwuRI0bwZjfn-7" value="ConditionReciver&lt;br&gt;&lt;br&gt;&amp;nbsp;void on() 具体实现&lt;br&gt;void off()&amp;nbsp; 具体实现" style="rounded=0;whiteSpace=wrap;html=1;fillColor=#dae8fc;strokeColor=#6c8ebf;" vertex="1" parent="1">
          <mxGeometry x="121" y="525" width="189" height="105" as="geometry" />
        </mxCell>
        <mxCell id="YH33TmlLzwuRI0bwZjfn-8" value="AppInvoker&lt;br&gt;&lt;br&gt;Command onCommand&lt;br&gt;&lt;br&gt;public void&amp;nbsp; on() {&lt;br&gt;onCommand.excecute()&lt;br&gt;}" style="rounded=0;whiteSpace=wrap;html=1;fillColor=#dae8fc;strokeColor=#6c8ebf;" vertex="1" parent="1">
          <mxGeometry x="520" y="525" width="190" height="105" as="geometry" />
        </mxCell>
      </root>
    </mxGraphModel>
  </diagram>
</mxfile>
